<?xml version="1.0" encoding="UTF-8"?>
<!DOCTYPE svg PUBLIC "-//W3C//DTD SVG 1.1//EN" "http://www.w3.org/Graphics/SVG/1.1/DTD/svg11.dtd">
<svg xmlns="http://www.w3.org/2000/svg" version="1.1" width="436px" height="449px" style="shape-rendering:geometricPrecision; text-rendering:geometricPrecision; image-rendering:optimizeQuality; fill-rule:evenodd; clip-rule:evenodd" xmlns:xlink="http://www.w3.org/1999/xlink">
<g><path style="opacity:0.004" fill="#fefffe" d="M 15.5,2.5 C 16.8333,3.16667 16.8333,3.16667 15.5,2.5 Z"/></g>
<g><path style="opacity:0.004" fill="#fefffe" d="M 329.5,10.5 C 330.833,11.1667 330.833,11.1667 329.5,10.5 Z"/></g>
<g><path style="opacity:0.004" fill="#fefffe" d="M 367.5,10.5 C 368.833,11.1667 368.833,11.1667 367.5,10.5 Z"/></g>
<g><path style="opacity:0.004" fill="#fefffe" d="M 420.5,10.5 C 421.833,11.1667 421.833,11.1667 420.5,10.5 Z"/></g>
<g><path style="opacity:0.004" fill="#fefffe" d="M 164.5,11.5 C 165.833,12.1667 165.833,12.1667 164.5,11.5 Z"/></g>
<g><path style="opacity:0.004" fill="#fefffe" d="M 409.5,12.5 C 410.833,13.1667 410.833,13.1667 409.5,12.5 Z"/></g>
<g><path style="opacity:0.004" fill="#fefffe" d="M 376.5,14.5 C 377.833,15.1667 377.833,15.1667 376.5,14.5 Z"/></g>
<g><path style="opacity:0.004" fill="#fefffe" d="M 98.5,17.5 C 99.8333,18.1667 99.8333,18.1667 98.5,17.5 Z"/></g>
<g><path style="opacity:0.004" fill="#fefffe" d="M 20.5,22.5 C 21.8333,23.1667 21.8333,23.1667 20.5,22.5 Z"/></g>
<g><path style="opacity:0.004" fill="#fefffe" d="M 127.5,22.5 C 128.833,23.1667 128.833,23.1667 127.5,22.5 Z"/></g>
<g><path style="opacity:0.004" fill="#fefffe" d="M 202.5,42.5 C 203.833,43.1667 203.833,43.1667 202.5,42.5 Z"/></g>
<g><path style="opacity:0.004" fill="#fefffe" d="M 409.5,42.5 C 410.833,43.1667 410.833,43.1667 409.5,42.5 Z"/></g>
<g><path style="opacity:0.004" fill="#fefffe" d="M 275.5,44.5 C 276.833,45.1667 276.833,45.1667 275.5,44.5 Z"/></g>
<g><path style="opacity:0.004" fill="#fefffe" d="M 219.5,46.5 C 220.833,47.1667 220.833,47.1667 219.5,46.5 Z"/></g>
<g><path style="opacity:0.004" fill="#fefffe" d="M 16.5,52.5 C 17.8333,53.1667 17.8333,53.1667 16.5,52.5 Z"/></g>
<g><path style="opacity:0.004" fill="#fefffe" d="M 166.5,57.5 C 167.833,58.1667 167.833,58.1667 166.5,57.5 Z"/></g>
<g><path style="opacity:0.004" fill="#fefffe" d="M 66.5,61.5 C 67.8333,62.1667 67.8333,62.1667 66.5,61.5 Z"/></g>
<g><path style="opacity:0.004" fill="#fefffe" d="M 272.5,63.5 C 273.833,64.1667 273.833,64.1667 272.5,63.5 Z"/></g>
<g><path style="opacity:0.004" fill="#fefffe" d="M 306.5,66.5 C 307.833,67.1667 307.833,67.1667 306.5,66.5 Z"/></g>
<g><path style="opacity:0.004" fill="#fefffe" d="M 53.5,74.5 C 54.8333,75.1667 54.8333,75.1667 53.5,74.5 Z"/></g>
<g><path style="opacity:0.004" fill="#fefffe" d="M 337.5,79.5 C 338.833,80.1667 338.833,80.1667 337.5,79.5 Z"/></g>
<g><path style="opacity:0.004" fill="#fefffe" d="M 405.5,85.5 C 406.833,86.1667 406.833,86.1667 405.5,85.5 Z"/></g>
<g><path style="opacity:0.004" fill="#fefffe" d="M 91.5,88.5 C 92.8333,89.1667 92.8333,89.1667 91.5,88.5 Z"/></g>
<g><path style="opacity:0.004" fill="#fefffe" d="M 115.5,90.5 C 116.833,91.1667 116.833,91.1667 115.5,90.5 Z"/></g>
<g><path style="opacity:0.004" fill="#fefffe" d="M 3.5,94.5 C 4.83333,95.1667 4.83333,95.1667 3.5,94.5 Z"/></g>
<g><path style="opacity:0.004" fill="#fefffe" d="M 35.5,96.5 C 36.8333,97.1667 36.8333,97.1667 35.5,96.5 Z"/></g>
<g><path style="opacity:0.004" fill="#fefffe" d="M 138.5,97.5 C 139.833,98.1667 139.833,98.1667 138.5,97.5 Z"/></g>
<g><path style="opacity:0.004" fill="#fefffe" d="M 329.5,99.5 C 330.833,100.167 330.833,100.167 329.5,99.5 Z"/></g>
<g><path style="opacity:0.004" fill="#fefffe" d="M 207.5,110.5 C 208.833,111.167 208.833,111.167 207.5,110.5 Z"/></g>
<g><path style="opacity:0.004" fill="#fefffe" d="M 182.5,111.5 C 183.833,112.167 183.833,112.167 182.5,111.5 Z"/></g>
<g><path style="opacity:0.004" fill="#fefffe" d="M 322.5,116.5 C 323.833,117.167 323.833,117.167 322.5,116.5 Z"/></g>
<g><path style="opacity:0.004" fill="#fefffe" d="M 133.5,123.5 C 134.833,124.167 134.833,124.167 133.5,123.5 Z"/></g>
<g><path style="opacity:0.004" fill="#fefffe" d="M 369.5,128.5 C 370.833,129.167 370.833,129.167 369.5,128.5 Z"/></g>
<g><path style="opacity:0.004" fill="#fefffe" d="M 427.5,131.5 C 428.833,132.167 428.833,132.167 427.5,131.5 Z"/></g>
<g><path style="opacity:0.004" fill="#fefffe" d="M 188.5,132.5 C 189.833,133.167 189.833,133.167 188.5,132.5 Z"/></g>
<g><path style="opacity:0.004" fill="#fefffe" d="M 383.5,132.5 C 384.833,133.167 384.833,133.167 383.5,132.5 Z"/></g>
<g><path style="opacity:0.168" fill="#3e7961" d="M 329.5,202.5 C 327.5,200.833 325.5,199.167 323.5,197.5C 322.359,196.661 321.026,195.994 319.5,195.5C 318.772,193.807 317.772,192.307 316.5,191C 311.356,188.763 306.023,187.096 300.5,186C 299.167,185 297.833,184 296.5,183C 289.919,182.813 283.419,182.313 277,181.5C 276.198,176.581 276.365,171.748 277.5,167C 288.161,166.5 298.828,166.333 309.5,166.5C 310.118,157.73 309.452,149.23 307.5,141C 252.5,140.333 197.5,140.333 142.5,141C 135.039,146.233 127.039,150.066 118.5,152.5C 118.5,157.167 118.5,161.833 118.5,166.5C 129.014,166.172 139.347,166.506 149.5,167.5C 140.645,167.304 131.812,167.637 123,168.5C 120.077,168.955 117.91,167.955 116.5,165.5C 117.116,160.849 117.782,156.182 118.5,151.5C 125.284,147.598 132.618,143.765 140.5,140C 197.166,139.5 253.832,139.333 310.5,139.5C 310.832,148.857 310.498,158.19 309.5,167.5C 299.495,167.544 289.495,167.544 279.5,167.5C 278.914,167.709 278.414,168.043 278,168.5C 277.501,172.486 277.334,176.486 277.5,180.5C 294.329,179.286 309.329,183.786 322.5,194C 325.447,196.436 327.78,199.269 329.5,202.5 Z"/></g>
<g><path style="opacity:1" fill="#308b66" d="M 323.5,197.5 C 321.752,200.635 320.085,203.968 318.5,207.5C 317.439,204.378 316.106,201.378 314.5,198.5C 314.382,200.083 313.549,201.749 312,203.5C 310.29,202.055 308.456,201.222 306.5,201C 305.418,203.306 306.252,204.806 309,205.5C 311.078,204.057 311.911,204.724 311.5,207.5C 309.549,207.227 308.049,207.893 307,209.5C 306.147,207.875 305.147,207.542 304,208.5C 302.731,207.095 302.231,205.429 302.5,203.5C 301.325,203.719 300.325,203.386 299.5,202.5C 299.331,200.883 298.997,199.216 298.5,197.5C 294.919,196.534 291.586,195.201 288.5,193.5C 285.629,193.971 282.962,194.971 280.5,196.5C 279.391,195.41 278.391,195.41 277.5,196.5C 282.167,197.167 286.833,197.833 291.5,198.5C 290.311,199.429 288.978,199.762 287.5,199.5C 283.894,199.211 280.394,199.544 277,200.5C 276.333,226.5 276.333,252.5 277,278.5C 278.33,279.582 279.83,280.249 281.5,280.5C 281.5,281.833 281.5,283.167 281.5,284.5C 286.744,285.815 292.077,286.482 297.5,286.5C 301.858,285.678 306.025,285.678 310,286.5C 312.085,284.831 313.251,282.664 313.5,280C 312.725,277.178 312.058,274.344 311.5,271.5C 312.5,271.5 313.5,271.5 314.5,271.5C 314.491,273.308 314.991,274.975 316,276.5C 316.333,276.167 316.667,275.833 317,275.5C 317.582,269.985 317.416,264.485 316.5,259C 319.476,251.398 319.143,244.065 315.5,237C 316.473,236.651 317.306,235.818 318,234.5C 319.018,235.706 319.518,235.373 319.5,233.5C 318.259,228.569 317.425,223.569 317,218.5C 313.871,215.682 313.705,212.682 316.5,209.5C 318.135,210.33 319.802,210.497 321.5,210C 324.1,212.459 324.1,214.959 321.5,217.5C 324.89,218.868 328.224,220.201 331.5,221.5C 331.579,220.07 331.246,218.736 330.5,217.5C 328.517,216.018 326.684,214.351 325,212.5C 324.405,211.101 324.572,209.768 325.5,208.5C 323.955,207.548 322.288,207.215 320.5,207.5C 320.351,206.448 320.517,205.448 321,204.5C 321.333,204.833 321.667,205.167 322,205.5C 323.807,200.75 326.14,200.417 329,204.5C 331,209.833 333,215.167 335,220.5C 335.689,221.357 336.522,222.023 337.5,222.5C 337.893,226.93 338.226,231.263 338.5,235.5C 337.5,235.5 336.5,235.5 335.5,235.5C 334.498,247.636 333.831,261.636 333.5,277.5C 330.395,281.682 328.395,286.348 327.5,291.5C 324.53,291.746 323.197,293.412 323.5,296.5C 322.022,296.238 320.689,296.571 319.5,297.5C 319.709,298.086 320.043,298.586 320.5,299C 318.527,299.495 316.527,299.662 314.5,299.5C 314.657,300.873 314.49,302.207 314,303.5C 311.833,304.488 310,305.821 308.5,307.5C 306.819,309.008 304.819,310.008 302.5,310.5C 291.314,312.967 279.981,313.967 268.5,313.5C 266.901,313.768 265.568,313.434 264.5,312.5C 258.652,309.521 252.652,306.687 246.5,304C 244.736,299.912 242.569,296.078 240,292.5C 238.612,293.554 237.112,293.72 235.5,293C 234.285,290.625 232.619,288.791 230.5,287.5C 230.5,287.167 230.5,286.833 230.5,286.5C 228.844,280.636 228.177,274.636 228.5,268.5C 232.551,268.077 236.384,268.744 240,270.5C 241.882,270.312 243.048,269.312 243.5,267.5C 244.63,254.526 244.796,241.526 244,228.5C 243.617,227.944 243.117,227.611 242.5,227.5C 237.767,226.81 232.934,226.144 228,225.5C 227.833,224.667 227.667,223.833 227.5,223C 231.633,216.335 234.633,209.168 236.5,201.5C 238.797,199.706 240.963,197.706 243,195.5C 243.824,185.991 243.658,176.657 242.5,167.5C 223.5,166.167 204.5,166.167 185.5,167.5C 185.5,188.833 185.5,210.167 185.5,231.5C 184.502,256.995 184.169,282.661 184.5,308.5C 183.209,308.263 182.209,308.596 181.5,309.5C 175.5,309.5 169.5,309.5 163.5,309.5C 159.5,309.167 155.5,308.833 151.5,308.5C 151.5,307.167 151.5,305.833 151.5,304.5C 153.199,300.228 154.532,295.728 155.5,291C 155.546,289.272 155.046,287.772 154,286.5C 153.667,289.5 153.333,292.5 153,295.5C 152.761,252.992 151.927,210.659 150.5,168.5C 150.5,167.833 150.167,167.5 149.5,167.5C 139.347,166.506 129.014,166.172 118.5,166.5C 118.5,161.833 118.5,157.167 118.5,152.5C 127.039,150.066 135.039,146.233 142.5,141C 197.5,140.333 252.5,140.333 307.5,141C 309.452,149.23 310.118,157.73 309.5,166.5C 298.828,166.333 288.161,166.5 277.5,167C 276.365,171.748 276.198,176.581 277,181.5C 283.419,182.313 289.919,182.813 296.5,183C 297.833,184 299.167,185 300.5,186C 306.023,187.096 311.356,188.763 316.5,191C 317.772,192.307 318.772,193.807 319.5,195.5C 321.026,195.994 322.359,196.661 323.5,197.5 Z M 296.5,204.5 C 299.831,208 302.998,211.666 306,215.5C 307.956,219.893 309.789,224.226 311.5,228.5C 312.809,241.17 312.809,253.836 311.5,266.5C 309.967,270.433 308.633,274.433 307.5,278.5C 306.163,279.315 305.163,280.482 304.5,282C 298.357,284.345 292.024,285.011 285.5,284C 283.65,283.31 282.316,282.144 281.5,280.5C 279.191,276.913 278.025,272.913 278,268.5C 277.5,246.169 277.333,223.836 277.5,201.5C 283.944,200.782 290.278,201.782 296.5,204.5 Z"/></g>
<g><path style="opacity:0.004" fill="#fefffe" d="M 99.5,147.5 C 100.833,148.167 100.833,148.167 99.5,147.5 Z"/></g>
<g><path style="opacity:0.004" fill="#fefffe" d="M 76.5,151.5 C 77.8333,152.167 77.8333,152.167 76.5,151.5 Z"/></g>
<g><path style="opacity:0.004" fill="#fefffe" d="M 314.5,165.5 C 315.833,166.167 315.833,166.167 314.5,165.5 Z"/></g>
<g><path style="opacity:0.829" fill="#3b765e" d="M 185.5,167.5 C 204.5,166.167 223.5,166.167 242.5,167.5C 223.539,167.785 204.539,167.785 185.5,167.5 Z"/></g>
<g><path style="opacity:0.004" fill="#fefffe" d="M 231.5,181.5 C 232.833,182.167 232.833,182.167 231.5,181.5 Z"/></g>
<g><path style="opacity:0.241" fill="#3f705d" d="M 242.5,167.5 C 243.658,176.657 243.824,185.991 243,195.5C 240.963,197.706 238.797,199.706 236.5,201.5C 237.713,198.775 239.546,196.441 242,194.5C 242.5,185.506 242.666,176.506 242.5,167.5 Z"/></g>
<g><path style="opacity:0.004" fill="#fefffe" d="M 7.5,189.5 C 8.83333,190.167 8.83333,190.167 7.5,189.5 Z"/></g>
<g><path style="opacity:0.004" fill="#fefffe" d="M 132.5,190.5 C 133.833,191.167 133.833,191.167 132.5,190.5 Z"/></g>
<g><path style="opacity:0.004" fill="#fefffe" d="M -0.5,202.5 C 0.833333,203.167 0.833333,203.167 -0.5,202.5 Z"/></g>
<g><path style="opacity:0.004" fill="#fefffe" d="M 187.5,209.5 C 188.833,210.167 188.833,210.167 187.5,209.5 Z"/></g>
<g><path style="opacity:0.004" fill="#fefffe" d="M 420.5,209.5 C 421.833,210.167 421.833,210.167 420.5,209.5 Z"/></g>
<g><path style="opacity:1" fill="#328865" d="M 323.5,197.5 C 325.5,199.167 327.5,200.833 329.5,202.5C 335.144,209.079 338.478,216.746 339.5,225.5C 340.523,236.815 340.69,248.148 340,259.5C 339.524,262.976 338.19,265.976 336,268.5C 335.667,271.167 335.333,273.833 335,276.5C 334.617,277.056 334.117,277.389 333.5,277.5C 333.831,261.636 334.498,247.636 335.5,235.5C 336.5,235.5 337.5,235.5 338.5,235.5C 338.226,231.263 337.893,226.93 337.5,222.5C 336.522,222.023 335.689,221.357 335,220.5C 333,215.167 331,209.833 329,204.5C 326.14,200.417 323.807,200.75 322,205.5C 321.667,205.167 321.333,204.833 321,204.5C 320.517,205.448 320.351,206.448 320.5,207.5C 322.288,207.215 323.955,207.548 325.5,208.5C 324.572,209.768 324.405,211.101 325,212.5C 326.684,214.351 328.517,216.018 330.5,217.5C 331.246,218.736 331.579,220.07 331.5,221.5C 328.224,220.201 324.89,218.868 321.5,217.5C 324.1,214.959 324.1,212.459 321.5,210C 319.802,210.497 318.135,210.33 316.5,209.5C 313.705,212.682 313.871,215.682 317,218.5C 317.425,223.569 318.259,228.569 319.5,233.5C 319.518,235.373 319.018,235.706 318,234.5C 317.306,235.818 316.473,236.651 315.5,237C 319.143,244.065 319.476,251.398 316.5,259C 317.416,264.485 317.582,269.985 317,275.5C 316.667,275.833 316.333,276.167 316,276.5C 314.991,274.975 314.491,273.308 314.5,271.5C 313.5,271.5 312.5,271.5 311.5,271.5C 312.058,274.344 312.725,277.178 313.5,280C 313.251,282.664 312.085,284.831 310,286.5C 306.025,285.678 301.858,285.678 297.5,286.5C 299.476,284.989 301.809,284.156 304.5,284C 306.16,282.512 307.16,280.679 307.5,278.5C 308.633,274.433 309.967,270.433 311.5,266.5C 312.29,265.391 312.79,264.058 313,262.5C 313.667,252.5 313.667,242.5 313,232.5C 312.79,230.942 312.29,229.609 311.5,228.5C 310.901,217.645 305.901,209.645 296.5,204.5C 296.047,203.542 295.381,202.708 294.5,202C 291.896,201.61 289.562,200.776 287.5,199.5C 288.978,199.762 290.311,199.429 291.5,198.5C 286.833,197.833 282.167,197.167 277.5,196.5C 278.391,195.41 279.391,195.41 280.5,196.5C 282.962,194.971 285.629,193.971 288.5,193.5C 291.586,195.201 294.919,196.534 298.5,197.5C 298.997,199.216 299.331,200.883 299.5,202.5C 300.325,203.386 301.325,203.719 302.5,203.5C 302.231,205.429 302.731,207.095 304,208.5C 305.147,207.542 306.147,207.875 307,209.5C 308.049,207.893 309.549,207.227 311.5,207.5C 311.911,204.724 311.078,204.057 309,205.5C 306.252,204.806 305.418,203.306 306.5,201C 308.456,201.222 310.29,202.055 312,203.5C 313.549,201.749 314.382,200.083 314.5,198.5C 316.106,201.378 317.439,204.378 318.5,207.5C 320.085,203.968 321.752,200.635 323.5,197.5 Z"/></g>
<g><path style="opacity:0.004" fill="#fefffe" d="M 12.5,212.5 C 13.8333,213.167 13.8333,213.167 12.5,212.5 Z"/></g>
<g><path style="opacity:0.004" fill="#fefffe" d="M 210.5,215.5 C 211.833,216.167 211.833,216.167 210.5,215.5 Z"/></g>
<g><path style="opacity:0.004" fill="#fefffe" d="M 402.5,219.5 C 403.833,220.167 403.833,220.167 402.5,219.5 Z"/></g>
<g><path style="opacity:0.004" fill="#fefffe" d="M 415.5,221.5 C 416.833,222.167 416.833,222.167 415.5,221.5 Z"/></g>
<g><path style="opacity:1" fill="#317d60" d="M 150.5,168.5 C 151.927,210.659 152.761,252.992 153,295.5C 153.333,292.5 153.667,289.5 154,286.5C 155.046,287.772 155.546,289.272 155.5,291C 154.532,295.728 153.199,300.228 151.5,304.5C 151.831,275.662 151.498,246.995 150.5,218.5C 150.318,201.519 150.318,184.852 150.5,168.5 Z"/></g>
<g><path style="opacity:0.914" fill="#3f745e" d="M 296.5,204.5 C 305.901,209.645 310.901,217.645 311.5,228.5C 309.789,224.226 307.956,219.893 306,215.5C 302.998,211.666 299.831,208 296.5,204.5 Z"/></g>
<g><path style="opacity:0.324" fill="#397b62" d="M 287.5,199.5 C 289.562,200.776 291.896,201.61 294.5,202C 295.381,202.708 296.047,203.542 296.5,204.5C 290.278,201.782 283.944,200.782 277.5,201.5C 277.333,223.836 277.5,246.169 278,268.5C 278.025,272.913 279.191,276.913 281.5,280.5C 279.83,280.249 278.33,279.582 277,278.5C 276.333,252.5 276.333,226.5 277,200.5C 280.394,199.544 283.894,199.211 287.5,199.5 Z"/></g>
<g><path style="opacity:0.004" fill="#fefffe" d="M 223.5,225.5 C 224.833,226.167 224.833,226.167 223.5,225.5 Z"/></g>
<g><path style="opacity:0.878" fill="#39775d" d="M 236.5,201.5 C 234.633,209.168 231.633,216.335 227.5,223C 227.667,223.833 227.833,224.667 228,225.5C 232.934,226.144 237.767,226.81 242.5,227.5C 236.833,227.5 231.167,227.5 225.5,227.5C 226.471,217.572 230.138,208.906 236.5,201.5 Z"/></g>
<g><path style="opacity:0.004" fill="#fefffe" d="M 389.5,226.5 C 390.833,227.167 390.833,227.167 389.5,226.5 Z"/></g>
<g><path style="opacity:0.004" fill="#fefffe" d="M 395.5,234.5 C 396.833,235.167 396.833,235.167 395.5,234.5 Z"/></g>
<g><path style="opacity:0.004" fill="#fefffe" d="M 353.5,238.5 C 354.833,239.167 354.833,239.167 353.5,238.5 Z"/></g>
<g><path style="opacity:0.577" fill="#366e58" d="M 150.5,218.5 C 151.498,246.995 151.831,275.662 151.5,304.5C 151.5,305.833 151.5,307.167 151.5,308.5C 155.5,308.833 159.5,309.167 163.5,309.5C 159.689,310.645 155.689,310.812 151.5,310C 150.316,308.82 149.649,307.32 149.5,305.5C 150.468,276.515 150.801,247.515 150.5,218.5 Z"/></g>
<g><path style="opacity:0.004" fill="#fefffe" d="M 235.5,247.5 C 236.833,248.167 236.833,248.167 235.5,247.5 Z"/></g>
<g><path style="opacity:0.004" fill="#fefffe" d="M 219.5,250.5 C 220.833,251.167 220.833,251.167 219.5,250.5 Z"/></g>
<g><path style="opacity:0.102" fill="#386955" d="M 311.5,228.5 C 312.29,229.609 312.79,230.942 313,232.5C 313.667,242.5 313.667,252.5 313,262.5C 312.79,264.058 312.29,265.391 311.5,266.5C 312.809,253.836 312.809,241.17 311.5,228.5 Z"/></g>
<g><path style="opacity:0.004" fill="#fefffe" d="M 349.5,256.5 C 350.833,257.167 350.833,257.167 349.5,256.5 Z"/></g>
<g><path style="opacity:1" fill="#3b785f" d="M 242.5,227.5 C 243.117,227.611 243.617,227.944 244,228.5C 244.796,241.526 244.63,254.526 243.5,267.5C 243.048,269.312 241.882,270.312 240,270.5C 236.384,268.744 232.551,268.077 228.5,268.5C 228.177,274.636 228.844,280.636 230.5,286.5C 227.129,280.364 225.129,273.697 224.5,266.5C 230.214,265.584 235.881,265.251 241.5,265.5C 242.499,252.851 242.832,240.184 242.5,227.5 Z"/></g>
<g><path style="opacity:0.004" fill="#fefffe" d="M 339.5,271.5 C 340.833,272.167 340.833,272.167 339.5,271.5 Z"/></g>
<g><path style="opacity:0.004" fill="#fefffe" d="M -0.5,276.5 C 0.833333,277.167 0.833333,277.167 -0.5,276.5 Z"/></g>
<g><path style="opacity:0.004" fill="#fefffe" d="M 70.5,277.5 C 71.8333,278.167 71.8333,278.167 70.5,277.5 Z"/></g>
<g><path style="opacity:0.004" fill="#fefffe" d="M 103.5,279.5 C 104.833,280.167 104.833,280.167 103.5,279.5 Z"/></g>
<g><path style="opacity:0.004" fill="#fefffe" d="M 55.5,280.5 C 56.8333,281.167 56.8333,281.167 55.5,280.5 Z"/></g>
<g><path style="opacity:1" fill="#3a765e" d="M 307.5,278.5 C 307.16,280.679 306.16,282.512 304.5,284C 301.809,284.156 299.476,284.989 297.5,286.5C 292.077,286.482 286.744,285.815 281.5,284.5C 281.5,283.167 281.5,281.833 281.5,280.5C 282.316,282.144 283.65,283.31 285.5,284C 292.024,285.011 298.357,284.345 304.5,282C 305.163,280.482 306.163,279.315 307.5,278.5 Z"/></g>
<g><path style="opacity:1" fill="#32725b" d="M 339.5,225.5 C 340.302,226.952 340.802,228.618 341,230.5C 341.977,244.246 341.477,257.912 339.5,271.5C 335.266,284.124 327.933,294.624 317.5,303C 314.714,305.06 311.714,306.56 308.5,307.5C 310,305.821 311.833,304.488 314,303.5C 314.49,302.207 314.657,300.873 314.5,299.5C 316.527,299.662 318.527,299.495 320.5,299C 320.043,298.586 319.709,298.086 319.5,297.5C 320.689,296.571 322.022,296.238 323.5,296.5C 323.197,293.412 324.53,291.746 327.5,291.5C 328.395,286.348 330.395,281.682 333.5,277.5C 334.117,277.389 334.617,277.056 335,276.5C 335.333,273.833 335.667,271.167 336,268.5C 338.19,265.976 339.524,262.976 340,259.5C 340.69,248.148 340.523,236.815 339.5,225.5 Z"/></g>
<g><path style="opacity:0.004" fill="#fefffe" d="M 431.5,289.5 C 432.833,290.167 432.833,290.167 431.5,289.5 Z"/></g>
<g><path style="opacity:0.004" fill="#fefffe" d="M 191.5,290.5 C 192.833,291.167 192.833,291.167 191.5,290.5 Z"/></g>
<g><path style="opacity:0.004" fill="#fefffe" d="M 199.5,295.5 C 200.833,296.167 200.833,296.167 199.5,295.5 Z"/></g>
<g><path style="opacity:0.11" fill="#38775f" d="M 185.5,231.5 C 185.5,257.5 185.5,283.5 185.5,309.5C 183.861,309.926 182.528,309.926 181.5,309.5C 182.209,308.596 183.209,308.263 184.5,308.5C 184.169,282.661 184.502,256.995 185.5,231.5 Z"/></g>
<g><path style="opacity:1" fill="#36775d" d="M 230.5,287.5 C 232.619,288.791 234.285,290.625 235.5,293C 237.112,293.72 238.612,293.554 240,292.5C 242.569,296.078 244.736,299.912 246.5,304C 252.652,306.687 258.652,309.521 264.5,312.5C 249.195,309.524 237.862,301.19 230.5,287.5 Z"/></g>
<g><path style="opacity:0.004" fill="#fefffe" d="M 93.5,302.5 C 94.8333,303.167 94.8333,303.167 93.5,302.5 Z"/></g>
<g><path style="opacity:0.667" fill="#3c6858" d="M 302.5,310.5 C 299.094,312.109 295.427,313.276 291.5,314C 283.655,314.822 275.989,314.656 268.5,313.5C 279.981,313.967 291.314,312.967 302.5,310.5 Z"/></g>
<g><path style="opacity:0.004" fill="#fefffe" d="M 93.5,322.5 C 94.8333,323.167 94.8333,323.167 93.5,322.5 Z"/></g>
<g><path style="opacity:0.004" fill="#fefffe" d="M 195.5,335.5 C 196.833,336.167 196.833,336.167 195.5,335.5 Z"/></g>
<g><path style="opacity:0.004" fill="#fefffe" d="M 194.5,337.5 C 195.833,338.167 195.833,338.167 194.5,337.5 Z"/></g>
<g><path style="opacity:0.004" fill="#fefffe" d="M 291.5,341.5 C 292.833,342.167 292.833,342.167 291.5,341.5 Z"/></g>
<g><path style="opacity:0.004" fill="#fefffe" d="M 332.5,344.5 C 333.833,345.167 333.833,345.167 332.5,344.5 Z"/></g>
<g><path style="opacity:0.004" fill="#fefffe" d="M 337.5,344.5 C 338.833,345.167 338.833,345.167 337.5,344.5 Z"/></g>
<g><path style="opacity:0.004" fill="#fefffe" d="M 335.5,347.5 C 336.833,348.167 336.833,348.167 335.5,347.5 Z"/></g>
<g><path style="opacity:0.004" fill="#fefffe" d="M 5.5,348.5 C 6.83333,349.167 6.83333,349.167 5.5,348.5 Z"/></g>
<g><path style="opacity:0.004" fill="#fefffe" d="M 164.5,350.5 C 165.833,351.167 165.833,351.167 164.5,350.5 Z"/></g>
<g><path style="opacity:0.004" fill="#fefffe" d="M -0.5,362.5 C 0.833333,363.167 0.833333,363.167 -0.5,362.5 Z"/></g>
<g><path style="opacity:0.004" fill="#fefffe" d="M 27.5,364.5 C 28.8333,365.167 28.8333,365.167 27.5,364.5 Z"/></g>
<g><path style="opacity:0.004" fill="#fefffe" d="M 149.5,368.5 C 150.833,369.167 150.833,369.167 149.5,368.5 Z"/></g>
<g><path style="opacity:0.004" fill="#fefffe" d="M 340.5,368.5 C 341.833,369.167 341.833,369.167 340.5,368.5 Z"/></g>
<g><path style="opacity:0.004" fill="#fefffe" d="M 392.5,372.5 C 393.833,373.167 393.833,373.167 392.5,372.5 Z"/></g>
<g><path style="opacity:0.004" fill="#fefffe" d="M 92.5,382.5 C 93.8333,383.167 93.8333,383.167 92.5,382.5 Z"/></g>
<g><path style="opacity:0.004" fill="#fefffe" d="M 98.5,389.5 C 99.8333,390.167 99.8333,390.167 98.5,389.5 Z"/></g>
<g><path style="opacity:0.004" fill="#fefffe" d="M 201.5,394.5 C 202.833,395.167 202.833,395.167 201.5,394.5 Z"/></g>
<g><path style="opacity:0.004" fill="#fefffe" d="M 363.5,394.5 C 364.833,395.167 364.833,395.167 363.5,394.5 Z"/></g>
<g><path style="opacity:0.004" fill="#fefffe" d="M 243.5,396.5 C 244.833,397.167 244.833,397.167 243.5,396.5 Z"/></g>
<g><path style="opacity:0.004" fill="#fefffe" d="M -0.5,405.5 C 0.833333,406.167 0.833333,406.167 -0.5,405.5 Z"/></g>
<g><path style="opacity:0.004" fill="#fefffe" d="M 415.5,411.5 C 416.833,412.167 416.833,412.167 415.5,411.5 Z"/></g>
<g><path style="opacity:0.004" fill="#fefffe" d="M 375.5,419.5 C 376.833,420.167 376.833,420.167 375.5,419.5 Z"/></g>
<g><path style="opacity:0.004" fill="#fefffe" d="M 112.5,425.5 C 113.833,426.167 113.833,426.167 112.5,425.5 Z"/></g>
<g><path style="opacity:0.004" fill="#fefffe" d="M 137.5,428.5 C 138.833,429.167 138.833,429.167 137.5,428.5 Z"/></g>
<g><path style="opacity:0.004" fill="#fefffe" d="M 104.5,429.5 C 105.833,430.167 105.833,430.167 104.5,429.5 Z"/></g>
<g><path style="opacity:0.004" fill="#fefffe" d="M 273.5,437.5 C 274.833,438.167 274.833,438.167 273.5,437.5 Z"/></g>
<g><path style="opacity:0.004" fill="#fefffe" d="M 369.5,440.5 C 370.833,441.167 370.833,441.167 369.5,440.5 Z"/></g>
<g><path style="opacity:0.004" fill="#fefffe" d="M 43.5,443.5 C 44.8333,444.167 44.8333,444.167 43.5,443.5 Z"/></g>
</svg>
